<?xml version="1.0" standalone="no"?>
<!DOCTYPE svg PUBLIC "-//W3C//DTD SVG 20010904//EN"
 "http://www.w3.org/TR/2001/REC-SVG-20010904/DTD/svg10.dtd">
<svg version="1.0" xmlns="http://www.w3.org/2000/svg"
 width="260.000000pt" height="347.000000pt" viewBox="0 0 260.000000 347.000000"
 preserveAspectRatio="xMidYMid meet">

<g transform="translate(0.000000,347.000000) scale(0.100000,-0.100000)"
fill="#000000" stroke="none">
<path d="M0 1735 c0 -1496 2 -1735 14 -1735 8 0 17 8 19 17 4 17 5 17 6 1 1
-16 13 -18 100 -18 114 0 111 -3 166 120 16 36 32 69 35 73 4 4 20 -11 35 -33
33 -47 61 -70 88 -70 22 0 42 44 72 165 l23 90 53 18 c70 24 257 57 339 60
l65 2 0 -193 c0 -174 2 -194 18 -203 9 -6 25 -8 35 -5 10 4 27 -1 38 -9 14
-10 47 -14 117 -15 88 0 98 2 95 17 -2 9 -26 33 -55 52 -58 40 -88 82 -72 98
6 6 14 71 17 144 l7 134 60 6 c33 4 131 7 218 8 l159 1 -6 -138 c-3 -75 -9
-167 -12 -203 -6 -66 -5 -67 21 -73 15 -4 33 -2 40 4 9 7 23 5 51 -6 56 -24
173 -24 188 -1 16 24 -1 46 -65 83 l-53 32 3 143 c1 79 4 145 5 146 1 1 43 -3
93 -9 l90 -11 5 -129 c6 -135 14 -161 46 -142 37 23 135 152 173 228 39 77 41
84 35 146 -14 148 -16 184 -10 173 8 -18 24 -16 24 2 0 8 -4 15 -9 15 -9 0
-23 41 -16 48 2 2 11 -13 20 -32 l18 -37 153 2 154 1 0 198 c0 149 -3 200 -12
203 -10 4 -10 6 0 6 9 1 12 244 12 1181 l0 1180 -264 0 c-202 0 -266 -3 -269
-12 -4 -10 -6 -10 -6 0 -2 20 -69 15 -74 -5 -4 -17 -5 -17 -6 0 -1 15 -17 17
-186 17 -117 0 -185 -4 -185 -10 0 -5 -12 -10 -27 -9 l-28 1 25 8 c14 4 -336
8 -777 9 l-803 1 0 -1735z m1723 1678 c-29 -2 -78 -2 -110 0 -32 2 -8 3 52 3
61 0 87 -1 58 -3z m274 -17 c0 -11 -5 -13 -19 -5 -10 5 -18 12 -18 14 0 3 8 5
18 5 10 0 19 -7 19 -14z m-86 -35 c-7 -5 -10 -14 -7 -20 4 -6 2 -11 -3 -11 -6
0 -11 9 -11 20 0 12 7 20 18 20 13 0 14 -2 3 -9z m79 -21 c-8 -5 -19 -10 -25
-10 -5 0 -3 5 5 10 8 5 20 10 25 10 6 0 3 -5 -5 -10z m-834 -290 c214 -10 394
-5 588 17 l49 5 66 -69 c69 -71 122 -161 166 -278 32 -85 33 -115 2 -115 -16
0 -28 11 -42 36 -45 83 -149 144 -248 144 -72 0 -111 -11 -180 -52 -72 -42
-86 -43 -147 -9 -156 87 -180 95 -270 96 -74 0 -93 -4 -143 -28 -32 -16 -84
-53 -116 -83 l-58 -53 -86 6 c-48 3 -87 10 -87 15 0 19 63 135 115 213 55 82
142 178 155 170 3 -2 110 -9 236 -15z m-365 -400 c27 0 27 -1 18 -30 -34 -96
121 -226 281 -238 l67 -4 -5 -68 c-4 -66 -4 -68 31 -106 32 -35 40 -39 86 -39
41 0 54 -4 66 -23 25 -35 74 -55 137 -56 66 -1 108 23 122 71 8 26 13 29 49
29 57 -1 81 33 81 118 l0 64 44 6 c102 14 175 66 218 156 28 57 56 82 74 63
21 -21 33 -148 37 -384 l5 -257 -53 -11 c-94 -20 -201 -33 -209 -24 -5 4 -10
17 -12 28 -5 32 -50 30 -125 -6 -83 -40 -134 -43 -184 -11 -20 12 -58 31 -85
41 -63 22 -92 14 -101 -30 l-6 -31 -56 6 c-31 4 -101 10 -156 15 -161 15 -424
74 -549 123 l-29 12 7 100 c9 127 21 220 43 316 l17 75 6 -46 c6 -52 24 -79
49 -79 35 0 82 72 80 123 0 13 -8 2 -20 -29 -32 -84 -81 -108 -93 -46 -7 35
-1 157 9 172 6 9 26 11 68 6 33 -3 73 -6 88 -6z m393 -40 c16 -16 -20 -40 -60
-40 -39 0 -84 16 -84 29 0 27 120 36 144 11z m613 -7 c6 -16 -71 -36 -108 -28
-30 7 -39 29 -16 39 23 9 120 1 124 -11z m-249 -48 c30 -9 61 -29 85 -53 112
-115 97 -371 -18 -296 -33 22 -51 56 -58 116 -6 40 -4 48 12 53 23 7 33 42 20
67 -24 44 -141 63 -199 33 -36 -19 -46 -47 -25 -78 14 -23 14 -30 -1 -91 -29
-117 -95 -157 -163 -100 -18 15 -33 39 -37 59 -8 45 18 131 59 191 35 51 117
109 166 117 36 6 102 -2 159 -18z m-62 -195 l51 0 6 -42 c3 -24 5 -43 4 -44
-1 -2 -23 2 -49 8 -39 9 -55 8 -89 -5 l-41 -16 7 26 c3 14 9 39 12 55 5 24 10
29 27 24 12 -3 44 -6 72 -6z m-60 -106 c-3 -9 -6 -18 -6 -20 0 -2 -9 -4 -20
-4 -25 0 -26 16 -2 29 25 15 35 13 28 -5z m72 -1 c-2 -10 -12 -18 -23 -18 -11
0 -21 8 -23 18 -3 13 3 17 23 17 20 0 26 -4 23 -17z m51 -7 c8 -10 9 -16 1
-21 -13 -8 -30 3 -30 21 0 18 14 18 29 0z m-70 -97 c12 -11 20 -26 18 -32 -8
-22 -137 1 -137 24 0 14 33 28 66 29 17 0 40 -9 53 -21z m120 -348 c25 -16 4
-86 -34 -115 -19 -14 -37 -26 -41 -26 -11 0 6 134 19 142 16 10 39 10 56 -1z
m61 -1 c13 -8 11 -14 -12 -37 l-28 -28 0 38 c0 38 11 46 40 27z m-149 -67 c-1
-26 -4 -50 -7 -55 -5 -8 -32 16 -67 58 -18 22 -18 22 25 37 24 8 45 13 47 10
3 -2 4 -24 2 -50z m48 -471 l193 -48 -63 -56 -62 -55 19 -26 c10 -15 24 -27
29 -27 36 -2 35 -18 -6 -96 -23 -43 -43 -80 -45 -82 -3 -4 -391 73 -446 89
-60 16 -51 31 25 44 32 5 37 9 32 26 -4 10 -2 19 4 19 14 0 8 64 -7 83 -12 13
-7 27 29 89 55 96 58 99 83 93 11 -3 108 -27 215 -53z m311 -55 c8 -14 11 -29
7 -34 -10 -9 -77 68 -70 80 7 12 46 -16 63 -46z m-1633 -13 c-3 -3 -12 -4 -19
-1 -8 3 -5 6 6 6 11 1 17 -2 13 -5z m797 -75 c-16 -29 -35 -54 -41 -57 -20 -6
-16 9 18 72 21 38 35 54 41 48 7 -7 1 -28 -18 -63z m-677 29 c-3 -8 -6 -5 -6
6 -1 11 2 17 5 13 3 -3 4 -12 1 -19z m-16 -45 c-12 -20 -14 -14 -5 12 4 9 9
14 11 11 3 -2 0 -13 -6 -23z m1856 5 c-3 -8 -6 -5 -6 6 -1 11 2 17 5 13 3 -3
4 -12 1 -19z m143 12 c0 -5 -4 -10 -9 -10 -6 0 -13 5 -16 10 -3 6 1 10 9 10 9
0 16 -4 16 -10z m-1977 -51 c-8 -8 -13 -7 -18 2 -6 8 -4 10 5 4 10 -6 12 -4 6
11 -6 15 -5 17 5 7 9 -10 10 -16 2 -24z m-326 -13 c-5 -16 -27 -19 -27 -3 0 7
7 14 15 14 9 0 14 -5 12 -11z m323 -46 c0 -10 -3 -21 -7 -23 -5 -3 -8 8 -8 23
0 15 3 26 8 23 4 -2 7 -13 7 -23z m-280 -1 c24 -12 49 -22 54 -24 15 -3 87
-33 108 -45 23 -13 48 -13 48 1 0 5 4 8 10 4 5 -3 7 -12 4 -19 -3 -8 5 -16 20
-20 31 -8 31 -9 14 -188 -11 -123 -12 -126 -26 -95 -34 78 -67 142 -82 157 -3
3 -21 25 -40 50 -19 25 -39 51 -45 58 -33 42 -115 122 -125 122 -6 0 -8 5 -5
10 9 14 15 13 65 -11z m247 -16 c-3 -10 -5 -4 -5 12 0 17 2 24 5 18 2 -7 2
-21 0 -30z m-147 13 c0 -3 -4 -8 -10 -11 -5 -3 -10 -1 -10 4 0 6 5 11 10 11 6
0 10 -2 10 -4z m85 -26 c3 -6 -4 -10 -17 -10 -18 0 -20 2 -8 10 19 12 18 12
25 0z m1964 -60 c0 -10 -3 -8 -9 5 -12 27 -12 43 0 25 5 -8 9 -22 9 -30z
m-2212 8 c-3 -8 -6 -5 -6 6 -1 11 2 17 5 13 3 -3 4 -12 1 -19z m2220 -90 c-2
-13 -4 -5 -4 17 -1 22 1 32 4 23 2 -10 2 -28 0 -40z m-2211 -5 c-11 -11 -17 4
-9 23 7 18 8 18 11 1 2 -10 1 -21 -2 -24z m2369 -98 c-23 -8 -85 -10 -85 -3 0
4 21 8 48 7 26 0 43 -2 37 -4z m-2135 -36 c0 -5 -7 -9 -15 -9 -9 0 -15 9 -15
21 0 18 2 19 15 9 8 -7 15 -16 15 -21z m46 -186 c-10 -26 -18 -8 -9 23 5 21 8
24 11 11 2 -10 1 -25 -2 -34z m-9 -115 c-3 -8 -6 -5 -6 6 -1 11 2 17 5 13 3
-3 4 -12 1 -19z m-10 -60 c-3 -7 -5 -2 -5 12 0 14 2 19 5 13 2 -7 2 -19 0 -25z
m-7 -28 c0 -5 -4 -10 -10 -10 -5 0 -10 5 -10 10 0 6 5 10 10 10 6 0 10 -4 10
-10z m24 -26 c3 -8 2 -12 -4 -9 -6 3 -10 10 -10 16 0 14 7 11 14 -7z m3 -71
c-3 -10 -5 -4 -5 12 0 17 2 24 5 18 2 -7 2 -21 0 -30z m-37 -101 c0 -10 -7
-27 -15 -38 -16 -21 -20 -8 -9 34 8 26 24 29 24 4z m-53 -39 c-3 -10 -5 -4 -5
12 0 17 2 24 5 18 2 -7 2 -21 0 -30z"/>
<path d="M1550 1766 c0 -9 7 -16 16 -16 17 0 14 22 -4 28 -7 2 -12 -3 -12 -12z"/>
<path d="M1405 1090 c-9 -15 -5 -19 34 -26 29 -6 33 -4 29 12 -4 22 -52 32
-63 14z"/>
<path d="M1485 1060 c-9 -15 14 -40 36 -40 24 0 33 18 19 35 -14 17 -46 20
-55 5z"/>
</g>
</svg>
