<?xml version="1.0" standalone="no"?>
<!DOCTYPE svg PUBLIC "-//W3C//DTD SVG 20010904//EN"
 "http://www.w3.org/TR/2001/REC-SVG-20010904/DTD/svg10.dtd">
<svg version="1.0" xmlns="http://www.w3.org/2000/svg"
 width="244.000000pt" height="344.000000pt" viewBox="0 0 244.000000 344.000000"
 preserveAspectRatio="xMidYMid meet">

<g transform="translate(0.000000,344.000000) scale(0.100000,-0.100000)"
fill="#000000" stroke="none">
<path d="M0 1816 c0 -1264 3 -1605 13 -1609 9 -4 8 -8 -3 -16 -9 -7 -11 -11
-3 -11 7 0 16 7 21 16 6 11 17 15 31 11 22 -5 30 16 11 28 -6 4 -8 11 -4 16 7
12 62 -31 64 -51 1 -10 3 -11 7 -2 2 6 9 10 14 6 5 -3 9 2 9 10 0 8 -4 18 -10
21 -22 14 -8 25 33 24 23 0 36 -3 29 -6 -6 -2 -12 -8 -12 -12 0 -11 64 0 73
13 5 8 10 7 16 -3 7 -11 11 -10 19 5 10 18 11 17 20 -6 9 -24 9 -24 16 -3 6
19 13 21 44 17 20 -2 39 -10 43 -16 5 -7 16 -1 34 18 26 27 27 27 20 6 -6 -21
-4 -23 17 -20 19 2 22 8 20 31 -2 15 1 27 8 27 6 0 8 5 4 13 -5 8 -2 8 9 -2 9
-7 17 -25 17 -40 l1 -26 18 23 c22 25 46 21 54 -9 4 -15 14 -19 44 -19 33 0
39 3 40 22 1 12 -3 26 -10 30 -9 5 -9 10 -1 18 9 9 17 6 32 -10 l19 -21 -4 26
c-7 36 9 31 31 -10 12 -22 22 -31 27 -24 9 15 33 -56 26 -81 -2 -10 -1 -24 3
-31 5 -7 2 -18 -6 -26 -8 -8 -14 -29 -14 -47 0 -19 -3 -48 -6 -65 l-7 -31 112
0 c67 0 111 4 111 10 0 6 8 10 18 11 10 0 12 3 5 6 -16 6 -16 54 -2 108 6 22
10 53 10 68 -1 16 3 26 8 23 5 -4 6 9 1 31 -10 43 -4 59 15 43 15 -13 55 -4
55 11 0 6 9 7 20 4 14 -4 20 -2 20 9 0 8 -4 18 -10 21 -21 13 -10 27 16 21 15
-4 32 -2 40 5 7 6 21 8 31 5 9 -4 20 -1 24 6 6 9 11 9 24 -2 15 -12 19 -12 30
3 6 9 15 14 18 10 4 -3 7 -1 7 6 0 9 8 11 23 8 13 -4 32 1 47 13 24 18 24 19
6 33 -11 8 -16 19 -12 26 5 7 -3 23 -18 38 -37 37 -35 63 7 63 23 0 28 3 18 9
-10 7 -1 11 33 16 26 4 53 14 61 21 25 25 42 16 54 -30 14 -55 14 -129 1 -210
-31 -192 -35 -230 -28 -286 3 -24 13 -14 23 20 4 17 3 21 -3 12 -7 -11 -10 -9
-15 7 -3 12 -1 18 4 15 5 -3 12 3 17 13 5 13 9 6 13 -27 4 -29 7 -3 7 73 2
102 5 120 22 137 11 11 22 32 25 47 4 16 15 46 26 69 33 72 49 125 49 170 0
23 4 46 10 49 5 3 10 15 10 26 0 32 56 86 91 87 17 0 38 7 46 14 10 8 43 13
88 13 48 0 78 5 89 14 15 12 19 12 26 1 5 -8 32 -14 74 -16 36 -1 70 -5 76 -9
5 -3 35 -10 65 -15 31 -5 70 -16 87 -25 58 -29 58 -29 58 135 l0 151 -44 -6
c-24 -2 -51 -8 -60 -11 -10 -4 -16 -1 -16 7 0 7 -7 3 -16 -9 -19 -28 -35 -28
-52 -1 -13 21 -27 18 -27 -4 0 -12 -151 -14 -163 -3 -3 3 -13 6 -23 6 -9 0
-19 5 -21 12 -7 19 -27 0 -58 -55 -16 -29 -41 -65 -55 -82 -24 -30 -25 -30
-31 -8 -3 13 -10 20 -15 17 -5 -3 -7 -9 -4 -14 3 -5 1 -11 -5 -15 -6 -4 -10 9
-10 33 0 32 -5 41 -25 50 -22 10 -28 24 -24 58 0 3 -11 14 -25 25 -15 11 -26
29 -26 39 0 10 -7 20 -15 24 -8 3 -15 12 -15 21 0 8 -6 15 -12 15 -9 0 -8 3 2
10 17 11 14 14 -25 28 l-30 10 33 7 c35 8 41 25 17 49 -8 8 -15 19 -15 25 0 5
-12 12 -27 14 l-28 4 28 2 c29 1 38 21 10 22 -16 0 -15 1 2 8 15 6 11 9 -23
14 -24 4 -42 13 -42 20 0 7 -13 28 -29 47 -27 32 -33 35 -80 33 -28 -1 -51 2
-51 7 0 6 -27 10 -60 10 -52 0 -65 -4 -86 -25 -22 -22 -54 -31 -121 -34 -7 -1
-13 -7 -13 -15 0 -17 -33 -31 -38 -17 -2 6 -15 11 -28 11 -14 0 -27 7 -30 15
-4 10 -14 13 -30 9 -15 -4 -24 -2 -24 5 0 15 -27 14 -33 -1 -2 -7 -8 -9 -13
-5 -4 4 -3 16 4 27 7 12 8 21 2 25 -6 3 -10 0 -10 -7 -1 -7 -20 -22 -44 -33
-30 -14 -42 -17 -39 -8 3 7 0 20 -7 28 -6 8 -9 19 -5 24 3 6 1 19 -4 30 -8 14
-8 21 2 24 6 2 -7 13 -30 25 -23 12 -45 27 -50 34 -11 18 -13 38 -3 38 5 0 4
12 0 28 -5 15 -14 47 -21 71 -7 24 -18 45 -25 48 -7 2 -12 17 -12 31 1 32 -37
98 -63 113 -11 5 -19 19 -19 30 0 28 -27 77 -49 89 -26 14 -38 13 -23 -2 7 -7
12 -30 12 -52 0 -21 -3 -37 -6 -33 -4 3 -13 0 -21 -8 -8 -8 -27 -15 -43 -15
-29 0 -109 -56 -109 -77 -1 -6 -9 -14 -19 -17 -10 -3 -35 -29 -57 -58 -53 -71
-59 -131 -20 -191 38 -56 83 -104 123 -129 26 -16 53 -20 135 -23 111 -3 239
-31 319 -71 48 -24 65 -40 54 -52 -13 -13 -200 -6 -226 8 -14 7 -69 17 -123
21 -73 6 -102 12 -111 24 -6 9 -16 15 -21 14 -17 -4 -45 13 -39 23 4 6 -1 8
-13 4 -12 -4 -25 -1 -33 9 -7 8 -20 15 -29 15 -9 0 -29 9 -46 20 -16 11 -38
20 -47 20 -10 0 -18 4 -18 10 0 5 -12 13 -27 16 -16 4 -34 12 -42 18 -10 8
-15 8 -18 0 -6 -19 -53 -3 -58 20 -19 86 -21 109 -13 161 11 73 49 129 136
201 91 76 130 100 176 107 60 10 79 33 72 87 -45 339 -41 540 14 699 16 46 27
81 24 78 -9 -9 -51 47 -90 118 -9 17 -27 41 -39 55 -22 24 -95 159 -95 177 0
4 -6 20 -14 34 -7 14 -16 37 -20 52 -5 21 -3 25 9 21 14 -6 52 -77 109 -206
13 -32 48 -92 75 -133 28 -41 51 -79 51 -84 0 -5 6 -11 13 -14 9 -3 30 18 56
53 39 54 96 107 186 176 19 15 19 15 -3 4 -13 -6 -28 -9 -35 -6 -9 3 -9 5 0 5
18 1 4 31 -16 32 -10 0 -11 2 -3 6 17 7 15 23 -3 23 -8 0 -15 -4 -15 -10 0 -5
-4 -10 -10 -10 -5 0 -10 9 -10 20 0 14 -7 20 -22 21 -13 0 -17 3 -10 6 10 4
10 8 2 18 -6 8 -15 35 -18 62 -6 39 -12 50 -35 61 -15 7 -27 19 -27 27 0 7 -8
16 -17 18 -10 3 -3 5 15 6 17 0 32 5 32 11 0 5 52 11 123 13 67 1 -59 4 -281
5 l-402 2 0 -1604z m140 1443 c0 -11 -4 -17 -10 -14 -5 3 -10 15 -10 26 0 11
5 17 10 14 6 -3 10 -15 10 -26z m-33 -86 c5 3 13 -10 19 -29 15 -48 -6 -45
-31 4 -26 51 -29 60 -11 38 8 -10 18 -16 23 -13z m300 -725 c-3 -8 -6 -5 -6 6
-1 11 2 17 5 13 3 -3 4 -12 1 -19z m10 -120 c-3 -8 -6 -5 -6 6 -1 11 2 17 5
13 3 -3 4 -12 1 -19z m-26 -69 c-9 -22 -10 -22 -10 -3 -1 11 2 24 6 27 12 12
14 0 4 -24z m-41 -9 c8 -16 7 -18 -4 -14 -8 3 -16 14 -19 25 -6 23 9 16 23
-11z m63 -25 c-7 -21 -13 -19 -13 6 0 11 4 18 10 14 5 -3 7 -12 3 -20z m-10
-50 c4 16 5 16 6 3 2 -27 -19 -32 -40 -10 -11 13 -16 28 -12 38 5 13 10 10 23
-17 15 -29 18 -30 23 -14z m31 -84 c3 -5 -1 -11 -9 -14 -9 -4 -12 -1 -8 9 6
16 10 17 17 5z m6 -43 c0 -18 -2 -20 -9 -8 -6 8 -7 18 -5 22 9 14 14 9 14 -14z
m75 -278 c8 -26 -4 -48 -16 -29 -12 19 -11 49 0 49 5 0 12 -9 16 -20z m100
-10 c-3 -5 -12 -10 -18 -10 -7 0 -6 4 3 10 19 12 23 12 15 0z m905 -320 c0 -5
-4 -10 -10 -10 -5 0 -10 5 -10 10 0 6 5 10 10 10 6 0 10 -4 10 -10z m-673 -16
c-3 -3 -12 -4 -19 -1 -8 3 -5 6 6 6 11 1 17 -2 13 -5z m653 -14 c21 -7 19 -8
-17 -9 -24 -1 -43 4 -43 9 0 12 24 12 60 0z m-465 -20 c4 -6 -9 -10 -32 -10
-28 0 -34 3 -23 10 20 13 47 13 55 0z m-162 -127 c-7 -2 -19 -2 -25 0 -7 3 -2
5 12 5 14 0 19 -2 13 -5z m72 -3 c4 -6 -7 -10 -25 -10 -18 0 -29 4 -25 10 3 6
15 10 25 10 10 0 22 -4 25 -10z m-632 -367 c-7 -2 -19 -2 -25 0 -7 3 -2 5 12
5 14 0 19 -2 13 -5z m1567 -17 c0 -11 -19 -15 -25 -6 -3 5 1 10 9 10 9 0 16
-2 16 -4z m-1770 -112 c0 -2 -7 -4 -15 -4 -8 0 -15 4 -15 10 0 5 7 7 15 4 8
-4 15 -8 15 -10z m313 6 c53 6 85 6 91 0 14 -14 44 -12 49 3 3 9 7 9 20 -1 11
-9 21 -11 33 -4 10 6 31 6 53 0 20 -5 41 -10 48 -11 7 -2 16 -6 19 -10 4 -4
18 -7 31 -7 22 0 23 -2 9 -15 -19 -20 -146 -34 -146 -16 0 21 -29 11 -32 -11
-3 -22 -29 -32 -52 -20 -20 11 -103 11 -123 0 -19 -9 -26 -8 -43 7 -16 14 -29
16 -71 11 -61 -8 -76 2 -71 47 l4 34 50 -8 c27 -4 86 -4 131 1z m337 0 c0 -5
-2 -10 -4 -10 -3 0 -8 5 -11 10 -3 6 -1 10 4 10 6 0 11 -4 11 -10z m-548 -49
c4 -4 -5 -6 -20 -5 -15 1 -35 3 -44 3 -10 1 -18 5 -18 10 0 10 71 3 82 -8z
m609 -8 c13 -16 12 -17 -3 -4 -10 7 -18 15 -18 17 0 8 8 3 21 -13z m101 -30
c9 -11 18 -49 23 -94 5 -62 4 -78 -9 -88 -9 -8 -16 -20 -16 -28 0 -8 -13 -28
-29 -44 -16 -16 -32 -34 -34 -41 -3 -7 -6 -2 -7 12 -1 23 -2 23 -10 5 -6 -14
-9 4 -9 55 0 80 22 193 39 198 5 2 8 8 4 13 -7 12 4 29 20 29 7 0 20 -8 28
-17z m198 -312 c0 -6 -4 -13 -10 -16 -5 -3 -10 1 -10 9 0 9 5 16 10 16 6 0 10
-4 10 -9z"/>
<path d="M845 3412 c13 -9 19 -140 7 -155 -5 -7 -12 -24 -16 -39 -5 -20 -2
-28 11 -31 17 -4 17 -5 0 -6 -10 0 -27 3 -37 9 -14 7 -24 5 -42 -10 l-23 -19
23 -1 c12 0 22 5 22 10 0 6 5 10 11 10 17 0 -1 -21 -28 -31 -37 -14 -22 -22
23 -13 22 4 33 9 26 11 -16 6 -5 23 14 23 8 0 13 -4 10 -9 -4 -5 3 -7 14 -4
11 3 17 9 14 14 -3 5 10 9 30 9 53 0 68 8 55 31 -6 13 -6 19 1 19 5 0 10 -7
10 -16 0 -15 9 -16 73 -8 89 11 171 11 260 2 l68 -7 -1 27 c-3 45 -1 52 18 52
9 0 25 7 35 14 18 14 18 16 2 40 -10 14 -23 26 -30 26 -16 0 -29 35 -20 50 4
7 -86 10 -267 10 -150 0 -268 -4 -263 -8z m105 -146 c0 -15 -3 -16 -14 -7 -8
6 -16 20 -19 31 -4 16 -2 17 14 7 10 -6 19 -20 19 -31z m-60 -64 c0 -7 -4 -10
-10 -7 -5 3 -10 16 -10 28 0 18 2 19 10 7 5 -8 10 -21 10 -28z"/>
<path d="M1544 3395 c14 -15 39 -27 67 -31 l44 -6 -32 31 c-23 23 -41 31 -67
31 l-35 0 23 -25z"/>
<path d="M2393 3413 c9 -2 25 -2 35 0 9 3 1 5 -18 5 -19 0 -27 -2 -17 -5z"/>
<path d="M725 3390 c7 -12 55 -14 55 -2 0 4 -14 9 -31 10 -19 2 -28 -2 -24 -8z"/>
<path d="M750 3361 c0 -6 5 -13 10 -16 6 -3 10 1 10 9 0 9 -4 16 -10 16 -5 0
-10 -4 -10 -9z"/>
<path d="M751 3256 c-14 -17 -7 -36 15 -36 15 0 18 18 5 38 -6 10 -10 10 -20
-2z"/>
<path d="M801 3228 c-1 -16 4 -28 9 -28 12 0 12 8 0 35 -8 18 -9 17 -9 -7z"/>
<path d="M717 3135 c3 -8 9 -12 14 -9 12 7 11 11 -5 17 -10 4 -13 1 -9 -8z"/>
<path d="M2420 3110 c0 -9 -31 -48 -73 -92 -10 -10 -22 -16 -27 -13 -6 4 -10
-1 -10 -10 0 -8 -6 -18 -12 -20 -7 -3 -14 -16 -14 -29 -1 -14 -18 -41 -38 -62
-20 -20 -36 -42 -37 -48 0 -6 -2 -20 -5 -31 -2 -11 -8 -49 -13 -84 -6 -34 -16
-70 -24 -80 -25 -29 -86 -151 -102 -203 -8 -29 -15 -89 -15 -137 l0 -86 107
-40 c96 -36 222 -106 223 -123 1 -4 14 -23 30 -42 l30 -34 0 398 c0 353 -2
397 -15 386 -8 -7 -15 -19 -15 -26 0 -9 -11 -14 -29 -14 -23 0 -30 5 -34 26
-5 29 9 84 34 129 11 21 23 29 38 28 20 -3 21 1 21 107 0 67 -4 110 -10 110
-5 0 -10 -5 -10 -10z"/>
<path d="M1753 2907 c-60 -22 -78 -50 -77 -117 0 -33 3 -62 5 -64 2 -2 25 -7
52 -11 l47 -7 0 38 c0 48 31 101 64 110 49 12 119 -48 145 -125 21 -65 10
-151 -22 -172 -6 -4 2 -28 20 -59 l30 -52 8 69 c18 156 7 229 -49 310 -60 87
-132 113 -223 80z"/>
<path d="M1268 2881 c-55 -18 -89 -47 -109 -90 -10 -24 -22 -42 -25 -38 -3 3
0 15 6 27 11 20 10 21 -9 11 -27 -15 -40 -40 -52 -106 -16 -86 2 -152 59 -224
40 -50 56 -62 107 -80 33 -12 67 -21 76 -21 9 0 16 -6 17 -12 0 -7 7 -31 15
-53 8 -22 13 -54 10 -71 -4 -24 3 -45 28 -87 18 -31 37 -54 41 -51 4 3 8 0 8
-5 0 -6 10 -11 23 -11 16 0 18 -3 9 -9 -10 -6 -7 -10 12 -15 17 -4 35 -1 49 9
12 8 29 15 39 15 9 0 21 8 27 17 5 10 12 15 16 11 4 -3 20 -2 36 4 21 7 33 7
43 -2 9 -7 28 -9 49 -5 24 5 37 3 43 -7 6 -9 10 -6 15 12 l7 25 1 -27 c1 -21
6 -28 21 -28 11 0 20 -5 20 -11 0 -6 6 -9 13 -6 6 2 11 10 10 16 -2 6 3 11 10
11 7 0 19 10 27 21 8 12 34 30 58 40 39 17 57 39 31 39 -19 0 -64 44 -66 65
-1 11 -5 52 -10 90 -8 75 -7 97 3 161 5 35 2 45 -16 62 -42 39 -148 33 -186
-11 -17 -20 -22 -42 -27 -133 -3 -59 -4 -110 -2 -112 4 -4 32 5 76 23 12 4 18
0 21 -18 6 -31 -8 -58 -26 -51 -7 3 -16 -2 -20 -12 -5 -12 -9 -14 -20 -5 -19
16 -44 4 -62 -30 -14 -28 -41 -42 -31 -16 4 10 -7 10 -54 -2 -32 -9 -59 -20
-59 -26 0 -11 -66 -12 -91 -1 -9 4 -24 25 -34 46 -30 66 -5 174 57 252 25 32
19 45 -13 28 -12 -7 -41 -10 -66 -7 -90 10 -168 108 -160 199 11 131 142 171
241 75 36 -35 46 -52 56 -102 l12 -59 24 29 c17 21 23 37 18 55 -17 72 -76
150 -136 181 -45 23 -121 32 -160 20z m512 -736 c0 -1 -12 -2 -26 -2 -17 0
-22 2 -13 7 10 7 39 3 39 -5z"/>
<path d="M668 2470 c-3 -8 -11 -44 -18 -79 -12 -69 -28 -101 -47 -101 -7 0
-13 -5 -13 -11 0 -6 -7 -9 -15 -5 -8 3 -15 1 -15 -4 0 -6 -7 -10 -16 -10 -24
0 -1 -25 36 -40 40 -17 75 6 90 57 12 39 10 219 -2 193z"/>
<path d="M2050 2029 c0 -19 7 -95 15 -169 8 -74 15 -165 15 -202 0 -40 4 -68
10 -68 42 0 148 86 191 155 26 42 24 109 -6 170 -13 28 -24 46 -24 42 -1 -4
-12 3 -25 17 -13 15 -28 26 -35 26 -6 0 -11 4 -11 9 0 10 -20 19 -65 31 -16 4
-38 11 -47 15 -15 6 -18 2 -18 -26z m200 -304 c-4 -13 -18 -21 -36 -23 -23 -2
-26 -1 -14 8 12 10 13 12 1 17 -19 8 7 23 35 21 18 -2 20 -6 14 -23z"/>
<path d="M2413 1586 c-23 -24 -34 -61 -12 -39 6 6 18 9 25 6 10 -4 14 4 14 26
0 17 -1 31 -2 31 -2 0 -13 -11 -25 -24z"/>
<path d="M1400 1540 l-45 -7 40 -1 c22 -1 47 3 55 8 8 5 11 9 5 8 -5 0 -30 -4
-55 -8z"/>
<path d="M899 1506 c13 -5 29 -5 42 0 17 8 13 9 -21 9 -34 0 -38 -1 -21 -9z"/>
<path d="M1163 1503 c9 -2 23 -2 30 0 6 3 -1 5 -18 5 -16 0 -22 -2 -12 -5z"/>
<path d="M1520 1491 c0 -5 9 -7 20 -4 11 3 20 7 20 9 0 2 -9 4 -20 4 -11 0
-20 -4 -20 -9z"/>
<path d="M926 1483 c-11 -3 -25 -11 -33 -18 -10 -11 -10 -14 3 -19 8 -3 12 -2
9 4 -3 6 0 10 7 10 7 0 22 7 32 15 20 15 16 17 -18 8z"/>
<path d="M1160 1480 l-45 -7 45 -1 c25 -1 61 -6 79 -12 36 -10 51 -6 35 9 -14
14 -65 19 -114 11z"/>
<path d="M2079 1490 c-1 -3 -7 -59 -14 -125 -7 -66 -17 -136 -23 -156 -8 -31
-6 -38 9 -48 11 -6 19 -7 19 -2 0 5 20 12 45 15 25 4 45 12 45 18 0 6 11 8 28
4 15 -4 35 -8 45 -9 9 -1 17 -5 17 -9 0 -17 38 -7 43 12 6 23 4 25 -45 34 -30
5 -38 12 -43 36 -5 21 -13 30 -26 30 -19 0 -23 -12 -19 -58 l2 -24 -22 22
c-14 14 -19 28 -15 41 5 13 2 19 -10 19 -25 0 -14 34 13 38 14 2 22 -2 22 -12
0 -11 6 -9 25 8 29 27 32 58 9 77 -12 10 -20 10 -34 1 -20 -12 -33 -2 -25 20
2 7 -7 27 -20 43 -14 17 -25 28 -26 25z m121 -240 c0 -5 -4 -10 -9 -10 -6 0
-13 5 -16 10 -3 6 1 10 9 10 9 0 16 -4 16 -10z m-123 -22 c-3 -8 -6 -5 -6 6
-1 11 2 17 5 13 3 -3 4 -12 1 -19z"/>
<path d="M1616 1414 c-11 -8 -16 -14 -10 -14 13 0 39 18 34 24 -3 2 -14 -2
-24 -10z"/>
<path d="M1088 1403 c6 -2 18 -2 25 0 6 3 1 5 -13 5 -14 0 -19 -2 -12 -5z"/>
<path d="M2401 1278 c1 -13 -2 -32 -6 -43 -5 -16 -5 -17 4 -5 9 13 11 13 11
-2 0 -10 4 -18 8 -18 13 0 8 83 -5 87 -8 3 -12 -4 -12 -19z"/>
<path d="M1688 1203 c7 -3 16 -2 19 1 4 3 -2 6 -13 5 -11 0 -14 -3 -6 -6z"/>
<path d="M2317 1203 c-14 -13 -6 -24 15 -21 27 4 36 28 11 28 -11 0 -23 -3
-26 -7z"/>
<path d="M2385 1190 c3 -5 10 -10 16 -10 5 0 9 5 9 10 0 6 -7 10 -16 10 -8 0
-12 -4 -9 -10z"/>
<path d="M166 225 c4 -8 10 -12 15 -9 14 8 10 24 -6 24 -9 0 -12 -6 -9 -15z"/>
<path d="M1208 223 c-10 -2 -18 -11 -18 -18 0 -7 -6 -16 -12 -19 -7 -3 -4 -5
7 -3 11 1 26 -2 33 -7 7 -4 16 -5 20 -1 3 3 0 10 -7 15 -8 4 -11 15 -8 24 4 9
5 15 4 15 -1 -1 -10 -3 -19 -6z"/>
<path d="M1116 171 c-4 -5 -2 -12 3 -15 5 -4 12 -2 15 3 4 5 2 12 -3 15 -5 4
-12 2 -15 -3z"/>
<path d="M566 151 c-12 -5 -16 -10 -9 -14 13 -8 43 2 43 14 0 10 -8 10 -34 0z"/>
<path d="M2375 120 c-3 -5 1 -10 9 -10 9 0 16 5 16 10 0 6 -4 10 -9 10 -6 0
-13 -4 -16 -10z"/>
<path d="M1110 106 c0 -2 7 -9 15 -16 12 -10 15 -10 15 4 0 9 -7 16 -15 16 -8
0 -15 -2 -15 -4z"/>
<path d="M2395 78 c-5 -23 -4 -68 2 -68 2 0 8 10 13 23 8 21 9 20 10 -8 1 -45
20 -10 20 38 0 30 -4 37 -20 37 -12 0 -22 -8 -25 -22z"/>
<path d="M1701 64 c0 -11 3 -14 6 -6 3 7 2 16 -1 19 -3 4 -6 -2 -5 -13z"/>
<path d="M2360 70 c0 -5 5 -10 11 -10 5 0 7 5 4 10 -3 6 -8 10 -11 10 -2 0 -4
-4 -4 -10z"/>
<path d="M1580 40 c0 -5 10 -10 23 -10 18 0 19 2 7 10 -19 13 -30 13 -30 0z"/>
<path d="M786 24 c-4 -10 -13 -14 -25 -11 -10 2 -25 1 -32 -4 -9 -6 -1 -9 24
-9 25 0 40 5 44 15 3 9 3 18 0 21 -2 3 -7 -3 -11 -12z"/>
<path d="M680 10 c0 -5 5 -10 10 -10 6 0 10 5 10 10 0 6 -4 10 -10 10 -5 0
-10 -4 -10 -10z"/>
<path d="M2360 10 c0 -5 5 -10 10 -10 6 0 10 5 10 10 0 6 -4 10 -10 10 -5 0
-10 -4 -10 -10z"/>
</g>
</svg>
