<?xml version="1.0" standalone="no"?>
<!DOCTYPE svg PUBLIC "-//W3C//DTD SVG 20010904//EN"
 "http://www.w3.org/TR/2001/REC-SVG-20010904/DTD/svg10.dtd">
<svg version="1.0" xmlns="http://www.w3.org/2000/svg"
 width="256.000000pt" height="347.000000pt" viewBox="0 0 256.000000 347.000000"
 preserveAspectRatio="xMidYMid meet">

<g transform="translate(0.000000,347.000000) scale(0.100000,-0.100000)"
fill="#000000" stroke="none">
<path d="M0 2790 l0 -680 29 0 c43 0 47 -17 6 -24 -19 -4 -35 -11 -35 -16 0
-13 -1 -13 86 15 42 14 89 25 104 25 l28 0 -14 -47 c-8 -27 -12 -62 -9 -80 5
-27 2 -35 -22 -50 -15 -9 -41 -28 -57 -41 -16 -13 -35 -21 -43 -18 -9 4 -13 1
-10 -6 2 -7 -11 -31 -30 -52 l-33 -40 0 -134 c0 -124 1 -134 18 -126 34 15 76
10 80 -9 5 -25 -46 -77 -75 -77 l-23 0 0 -280 c0 -272 5 -320 30 -256 6 18 23
28 63 40 41 12 65 27 99 64 25 27 49 58 52 70 11 33 35 26 52 -15 24 -56 61
-99 111 -128 41 -25 43 -28 26 -41 -10 -7 -31 -14 -48 -14 -24 0 -27 -2 -15
-11 13 -8 11 -12 -10 -27 -62 -43 -67 -58 -6 -18 37 25 75 46 82 46 8 0 17 7
20 15 4 8 12 15 19 15 20 0 72 -30 55 -31 -8 -1 16 -5 53 -9 37 -4 72 -11 78
-17 5 -5 12 -43 14 -84 3 -41 7 -110 10 -155 3 -44 3 -88 -1 -97 -5 -15 -25
-17 -148 -19 -77 -1 -111 -3 -73 -5 44 -3 67 -8 67 -16 0 -7 -37 -53 -81 -102
-45 -50 -110 -121 -144 -160 -97 -107 -164 -189 -160 -193 2 -3 17 10 32 29
115 137 114 136 178 140 35 2 36 3 10 6 -16 3 -33 8 -38 12 -4 4 30 47 75 96
46 48 89 97 97 109 43 64 62 76 123 76 l58 0 0 -65 c0 -59 -2 -67 -23 -75 -19
-7 -19 -9 -3 -9 18 -1 19 -7 13 -93 -4 -51 -3 -98 1 -104 16 -24 55 -34 135
-34 70 0 89 3 111 21 28 22 34 60 13 78 -8 6 -29 14 -48 17 -52 10 -61 22 -54
67 4 22 8 74 9 116 l1 76 155 5 155 6 -152 2 -153 2 -2 120 c-1 66 -2 130 -2
143 l-1 22 345 6 c190 3 347 4 350 2 5 -5 6 -21 16 -189 6 -114 6 -122 -12
-127 -17 -4 -17 -5 -1 -6 15 -1 17 -14 18 -113 2 -141 4 -157 18 -171 8 -8 49
-12 114 -12 120 0 157 15 157 64 0 38 -26 59 -80 63 l-45 3 -3 82 c-3 78 -2
82 20 86 22 4 22 4 1 6 -24 1 -22 -10 -43 230 -6 68 -9 125 -8 127 2 1 44 17
93 35 90 33 91 33 285 33 l195 1 20 -59 19 -58 53 4 c66 6 83 20 83 69 l0 38
68 4 67 3 -68 2 c-68 2 -68 2 -83 38 -17 41 -12 89 19 153 16 34 20 64 20 132
l0 88 56 4 56 3 -61 2 c-46 2 -63 6 -68 18 -11 29 -6 34 37 36 l42 1 -47 6
-47 6 -52 100 c-32 61 -48 100 -40 103 6 2 11 8 11 14 0 6 -6 8 -14 5 -16 -6
-17 -4 -56 103 -15 41 -30 82 -34 91 -7 17 18 51 128 169 28 31 65 73 83 93
29 34 35 36 72 31 l41 -6 0 696 0 696 -1280 0 -1280 0 0 -680z m1465 351 c17
-6 71 -23 120 -37 156 -47 295 -125 295 -168 0 -7 18 -21 39 -31 52 -23 85
-59 112 -119 18 -41 20 -60 15 -110 -9 -92 -45 -136 -109 -136 -99 1 -177 74
-185 175 -6 70 24 135 82 177 l41 30 -35 -7 c-19 -3 -46 -10 -60 -15 -14 -5
-43 -14 -65 -19 -42 -11 -50 -23 -78 -129 -10 -36 -15 -42 -32 -38 -11 3 -26
1 -33 -3 -9 -5 -1 -10 25 -14 97 -16 187 -102 232 -222 22 -60 37 -178 28
-217 -11 -41 -44 -68 -86 -68 -73 0 -107 51 -129 195 -7 44 -8 73 -2 79 16 16
11 72 -7 95 -37 45 -152 44 -201 -2 -18 -16 -22 -31 -21 -66 4 -84 -13 -225
-31 -268 -23 -52 -67 -78 -118 -68 -80 15 -114 64 -114 162 1 103 42 202 120
286 46 49 128 97 167 97 15 0 17 2 7 9 -9 5 -33 1 -63 -10 -27 -11 -53 -19
-58 -19 -5 0 -11 17 -15 38 -3 20 -13 50 -21 66 -8 15 -15 34 -15 42 0 17 -7
20 -65 28 l-50 6 38 -14 c21 -8 46 -21 56 -30 18 -17 51 -104 51 -136 0 -10
-21 -43 -47 -74 -26 -31 -59 -77 -74 -103 -23 -42 -30 -48 -55 -45 -120 12
-207 115 -190 225 14 84 73 157 141 172 62 14 58 18 -30 36 l-90 18 -43 -42
c-69 -66 -86 -108 -87 -203 0 -72 3 -85 30 -129 46 -75 108 -109 206 -114 l78
-3 -6 -77 c-5 -66 -3 -83 16 -118 11 -23 31 -49 43 -58 22 -16 12 -17 -177
-11 -229 7 -434 41 -485 81 -8 7 -29 15 -46 18 -46 9 -134 49 -134 61 0 23 30
164 49 226 33 114 81 223 126 286 59 83 133 157 147 148 7 -4 8 -3 4 4 -11 19
107 89 214 128 110 40 209 53 380 50 91 -2 179 -8 195 -15z m592 -615 c-4 -40
-9 -80 -13 -89 -9 -25 -24 -10 -24 24 0 17 -4 28 -9 25 -5 -3 -6 -54 -3 -114
5 -124 8 -119 -92 -157 -81 -30 -82 -31 -64 -2 23 34 29 96 16 167 -17 104
-18 101 33 114 62 16 111 47 127 79 24 50 35 32 29 -47z m-517 -91 c41 0 78
-4 82 -10 13 -17 9 -65 -4 -65 -9 0 -10 -3 -2 -8 6 -4 19 -30 28 -59 19 -58
50 -103 72 -103 15 0 19 -16 6 -24 -15 -9 -276 -24 -324 -19 l-48 6 24 28 c25
29 30 45 41 132 l6 47 42 2 c23 1 59 0 80 -1 22 -1 37 2 37 9 0 8 -25 11 -75
9 -41 -1 -78 1 -81 4 -3 3 -3 20 1 37 5 25 10 30 23 23 10 -4 51 -8 92 -8z
m850 -315 c0 -5 8 -10 18 -10 10 0 26 -6 35 -12 15 -12 9 -22 -61 -98 -42 -47
-95 -106 -117 -132 l-40 -46 -52 48 c-52 48 -52 48 -47 97 4 26 1 66 -5 88 -6
22 -7 43 -2 48 18 18 271 34 271 17z m-520 -435 c13 -16 7 -123 -8 -136 -4 -4
-25 -9 -47 -11 l-40 -3 -2 62 c-2 56 1 64 24 83 31 24 56 26 73 5z m-785 -77
c1 -1 6 -28 9 -59 8 -65 3 -70 -59 -60 -28 4 -43 13 -52 31 -18 36 -16 67 6
89 16 16 26 18 56 11 20 -5 38 -10 40 -12z m1255 -109 c7 -11 9 -23 7 -26 -7
-6 -47 16 -47 26 0 26 26 27 40 0z m-317 -104 c-2 -53 -6 -73 -20 -83 -54 -39
-237 -58 -263 -27 -7 9 -15 37 -18 63 -8 89 54 122 223 119 l80 -2 -2 -70z
m-1013 20 c26 -9 57 -13 81 -9 47 8 66 -5 75 -52 8 -46 -15 -80 -74 -106 -65
-29 -205 -29 -283 1 -82 31 -185 125 -116 107 69 -18 71 -17 30 9 -74 46 -49
73 34 36 41 -19 41 -19 105 4 75 29 92 30 148 10z m1085 -31 c26 -26 -3 -84
-42 -84 -14 0 -19 80 -6 93 11 12 31 8 48 -9z m28 -423 c19 -7 43 -23 51 -37
l16 -24 -137 0 -137 0 26 28 c14 15 36 46 47 70 l22 43 38 -34 c21 -19 54 -40
74 -46z m270 -28 c19 -38 28 -105 17 -123 -11 -18 -15 -14 -28 35 l-10 40 1
-40 c1 -44 -9 -69 -24 -60 -5 4 -9 16 -9 29 0 12 -7 31 -15 42 -17 23 -18 19
-6 -22 5 -17 5 -37 0 -45 -5 -9 -14 1 -28 35 -30 69 -28 78 32 107 28 14 53
27 54 27 1 1 9 -10 16 -25z m-1586 -135 c15 -12 18 -374 5 -505 -4 -39 -6 -76
-4 -82 2 -6 18 -11 35 -11 36 0 78 -19 84 -37 2 -6 -5 -21 -16 -32 -18 -18
-33 -21 -104 -21 -119 0 -125 6 -115 112 11 111 13 524 4 567 l-8 34 53 -7
c29 -4 59 -12 66 -18z m865 -43 c4 -27 10 -141 14 -252 6 -158 4 -206 -6 -218
-11 -13 -5 -15 52 -15 51 0 69 -4 82 -19 14 -15 15 -24 7 -40 -16 -29 -38 -39
-109 -47 -67 -7 -116 6 -132 36 -5 9 -9 111 -10 226 0 115 -5 241 -10 279 -5
39 -9 73 -10 78 0 4 9 7 19 7 11 0 23 5 26 11 4 5 21 9 38 7 30 -3 32 -6 39
-53z m-764 28 c-16 -2 -40 -2 -55 0 -16 2 -3 4 27 4 30 0 43 -2 28 -4z"/>
<path d="M1475 2720 c-4 -6 10 -10 35 -10 25 0 39 4 35 10 -3 6 -19 10 -35 10
-16 0 -32 -4 -35 -10z"/>
<path d="M481 2597 c-9 -24 -15 -82 -12 -130 2 -49 90 -84 142 -57 34 19 82
141 60 155 -5 2 -12 -16 -16 -42 -10 -66 -77 -129 -100 -93 -3 6 -15 10 -25
10 -38 0 -48 61 -25 153 9 34 -12 38 -24 4z"/>
<path d="M1940 1420 c-11 -8 -7 -9 14 -4 25 6 28 4 23 -10 -4 -10 -1 -16 8
-16 8 0 15 -4 15 -9 0 -19 -56 -49 -110 -60 l-55 -10 51 4 c28 2 67 13 87 25
31 19 37 27 37 56 0 30 -3 34 -27 34 -16 0 -35 -5 -43 -10z"/>
<path d="M885 1358 c-4 -9 -17 -19 -31 -22 -14 -4 -24 -14 -24 -24 0 -11 3
-13 8 -5 4 6 23 13 43 15 33 3 34 4 22 28 -10 20 -13 21 -18 8z"/>
<path d="M978 1353 c7 -3 16 -2 19 1 4 3 -2 6 -13 5 -11 0 -14 -3 -6 -6z"/>
<path d="M1017 1303 c-4 -3 -24 -9 -44 -13 -36 -7 -36 -8 -7 -9 16 0 39 6 50
14 10 8 16 15 13 15 -3 0 -9 -3 -12 -7z"/>
<path d="M868 1283 c6 -2 18 -2 25 0 6 3 1 5 -13 5 -14 0 -19 -2 -12 -5z"/>
<path d="M10 1871 c0 -6 9 -9 20 -8 26 2 26 17 0 17 -11 0 -20 -4 -20 -9z"/>
<path d="M2430 1599 l-85 -5 108 -2 c102 -2 133 1 85 9 -13 2 -61 1 -108 -2z"/>
<path d="M30 1500 c0 -5 7 -10 16 -10 8 0 12 5 9 10 -3 6 -10 10 -16 10 -5 0
-9 -4 -9 -10z"/>
<path d="M83 873 c26 -2 67 -2 90 0 23 2 2 3 -48 3 -50 0 -68 -1 -42 -3z"/>
<path d="M0 739 c0 -5 26 -9 57 -9 31 0 54 2 52 4 -10 9 -109 14 -109 5z"/>
<path d="M186 705 c-49 -37 -68 -45 -105 -46 -25 -1 -36 -4 -24 -6 33 -6 28
-19 -17 -49 -22 -15 -40 -28 -40 -31 0 -7 57 26 86 49 16 13 47 36 69 51 46
31 102 76 95 76 -3 0 -32 -20 -64 -44z"/>
<path d="M1708 733 c6 -2 18 -2 25 0 6 3 1 5 -13 5 -14 0 -19 -2 -12 -5z"/>
<path d="M1483 713 c9 -2 23 -2 30 0 6 3 -1 5 -18 5 -16 0 -22 -2 -12 -5z"/>
<path d="M1328 703 c6 -2 18 -2 25 0 6 3 1 5 -13 5 -14 0 -19 -2 -12 -5z"/>
<path d="M15 500 c11 -5 42 -9 70 -9 l49 -1 -69 -72 c-79 -81 -60 -73 30 13
33 32 71 59 85 62 17 3 13 5 -15 6 -22 1 -69 4 -105 6 -42 2 -58 0 -45 -5z"/>
<path d="M290 475 c0 -8 -52 -69 -115 -135 -63 -67 -120 -130 -126 -142 -11
-21 159 153 230 235 46 54 47 57 26 57 -8 0 -15 -7 -15 -15z"/>
<path d="M348 483 c6 -2 18 -2 25 0 6 3 1 5 -13 5 -14 0 -19 -2 -12 -5z"/>
<path d="M1223 468 c7 -4 48 -7 92 -6 90 1 76 5 -32 10 -40 2 -67 0 -60 -4z"/>
<path d="M1908 463 c23 -2 59 -2 80 0 20 2 1 4 -43 4 -44 0 -61 -2 -37 -4z"/>
<path d="M2098 453 c12 -2 30 -2 40 0 9 3 -1 5 -23 4 -22 0 -30 -2 -17 -4z"/>
<path d="M2328 443 c7 -3 16 -2 19 1 4 3 -2 6 -13 5 -11 0 -14 -3 -6 -6z"/>
<path d="M2398 433 c23 -2 59 -2 80 0 20 2 1 4 -43 4 -44 0 -61 -2 -37 -4z"/>
<path d="M523 313 c15 -2 39 -2 55 0 15 2 2 4 -28 4 -30 0 -43 -2 -27 -4z"/>
<path d="M2303 162 c-6 -4 30 -6 80 -4 138 4 155 9 37 10 -58 1 -110 -2 -117
-6z"/>
</g>
</svg>
